<?xml version="1.0" encoding="UTF-8" standalone="no"?>
<svg
   height="316.22775"
   id="Layer_1"
   version="1.1"
   viewBox="0 0 316 316"
   width="316.22775"
   x="0px"
   xml:space="preserve"
   y="0px"
   xmlns="http://www.w3.org/2000/svg"
   xmlns:svg="http://www.w3.org/2000/svg"><defs
   id="defs50" />
<style
   type="text/css"
   id="style1">
	.st0{fill:#EC1E24;stroke:#231F20;stroke-width:3;stroke-miterlimit:10;}
	.st1{fill:none;stroke:#AC1F24;stroke-width:3;stroke-linecap:round;stroke-linejoin:round;}
	.st2{fill:#AC1F25;stroke:#AC1F24;stroke-miterlimit:10;}
	.st3{fill:#AC1F25;stroke:#AC1F24;stroke-linecap:round;stroke-linejoin:round;}
	.st4{fill:none;stroke:#AC1F24;stroke-width:3;stroke-linecap:round;stroke-linejoin:bevel;}
	.st5{fill:#AC1F25;stroke:#AC1F24;stroke-width:3;stroke-linecap:round;stroke-linejoin:round;}
</style>
<path
   class="st0"
   d="M 152.8,312.8"
   id="path1"
   style="stroke:#06b6d4;stroke-opacity:1" />
<path
   class="st0"
   d="M 157.8,312.8"
   id="path2"
   style="stroke:#06b6d4;stroke-opacity:1" />
<path
   class="st0"
   d="M 162.9,312.8"
   id="path3"
   style="stroke:#06b6d4;stroke-opacity:1" />
<g
   id="g46"
   style="stroke:#06b6d4;stroke-opacity:1">
	<line
   class="st1"
   x1="40.400002"
   x2="275.29999"
   y1="159.7"
   y2="159.7"
   id="line3"
   style="stroke:#06b6d4;stroke-opacity:1" />
	<line
   class="st1"
   x1="40.799999"
   x2="274.89999"
   y1="148.10001"
   y2="148.10001"
   id="line4"
   style="stroke:#06b6d4;stroke-opacity:1" />
	<line
   class="st1"
   x1="42.400002"
   x2="273.29999"
   y1="136.5"
   y2="136.5"
   id="line5"
   style="stroke:#06b6d4;stroke-opacity:1" />
	<line
   class="st1"
   x1="45.200001"
   x2="270.5"
   y1="124.9"
   y2="124.9"
   id="line6"
   style="stroke:#06b6d4;stroke-opacity:1" />
	<line
   class="st1"
   x1="49.299999"
   x2="266.39999"
   y1="113.3"
   y2="113.3"
   id="line7"
   style="stroke:#06b6d4;stroke-opacity:1" />
	<line
   class="st1"
   x1="54.799999"
   x2="260.79999"
   y1="101.7"
   y2="101.7"
   id="line8"
   style="stroke:#06b6d4;stroke-opacity:1" />
	<line
   class="st1"
   x1="74"
   x2="253.5"
   y1="90.199997"
   y2="90.199997"
   id="line9"
   style="stroke:#06b6d4;stroke-opacity:1" />
	<line
   class="st1"
   x1="74"
   x2="244.10001"
   y1="78.699997"
   y2="78.699997"
   id="line10"
   style="stroke:#06b6d4;stroke-opacity:1" />
	<line
   class="st1"
   x1="83.900002"
   x2="231.8"
   y1="67.099998"
   y2="67.099998"
   id="line11"
   style="stroke:#06b6d4;stroke-opacity:1" />
	<line
   class="st1"
   x1="101.1"
   x2="214.60001"
   y1="55.5"
   y2="55.5"
   id="line12"
   style="stroke:#06b6d4;stroke-opacity:1" />
	<line
   class="st1"
   x1="259.39999"
   x2="259.39999"
   y1="99.300003"
   y2="159.7"
   id="line13"
   style="stroke:#06b6d4;stroke-opacity:1" />
	<line
   class="st1"
   x1="247.8"
   x2="247.8"
   y1="82.800003"
   y2="159.7"
   id="line14"
   style="stroke:#06b6d4;stroke-opacity:1" />
	<line
   class="st1"
   x1="236.2"
   x2="236.2"
   y1="70.800003"
   y2="159.7"
   id="line15"
   style="stroke:#06b6d4;stroke-opacity:1" />
	<line
   class="st1"
   x1="224.7"
   x2="224.7"
   y1="61.700001"
   y2="159.10001"
   id="line16"
   style="stroke:#06b6d4;stroke-opacity:1" />
	<line
   class="st1"
   x1="213.10001"
   x2="213.10001"
   y1="54.5"
   y2="159.39999"
   id="line17"
   style="stroke:#06b6d4;stroke-opacity:1" />
	<line
   class="st1"
   x1="201.5"
   x2="201.5"
   y1="49.200001"
   y2="159.7"
   id="line18"
   style="stroke:#06b6d4;stroke-opacity:1" />
	<line
   class="st1"
   x1="189.89999"
   x2="189.89999"
   y1="45.200001"
   y2="159.7"
   id="line19"
   style="stroke:#06b6d4;stroke-opacity:1" />
	<line
   class="st1"
   x1="178.3"
   x2="178.3"
   y1="42.599998"
   y2="159.7"
   id="line20"
   style="stroke:#06b6d4;stroke-opacity:1" />
	<line
   class="st1"
   x1="166.7"
   x2="166.7"
   y1="40.900002"
   y2="159.7"
   id="line21"
   style="stroke:#06b6d4;stroke-opacity:1" />
	<line
   class="st1"
   x1="155.10001"
   x2="155.10001"
   y1="40.900002"
   y2="159.7"
   id="line22"
   style="stroke:#06b6d4;stroke-opacity:1" />
	<line
   class="st1"
   x1="143.5"
   x2="143.5"
   y1="41.700001"
   y2="159.7"
   id="line23"
   style="stroke:#06b6d4;stroke-opacity:1" />
	<line
   class="st1"
   x1="131.89999"
   x2="131.89999"
   y1="43.900002"
   y2="159.7"
   id="line24"
   style="stroke:#06b6d4;stroke-opacity:1" />
	<line
   class="st1"
   x1="120.3"
   x2="120.3"
   y1="47"
   y2="159.7"
   id="line25"
   style="stroke:#06b6d4;stroke-opacity:1" />
	<line
   class="st1"
   x1="108.7"
   x2="108.7"
   y1="51.5"
   y2="159.7"
   id="line26"
   style="stroke:#06b6d4;stroke-opacity:1" />
	<line
   class="st1"
   x1="74"
   x2="74"
   y1="76.099998"
   y2="159.7"
   id="line27"
   style="stroke:#06b6d4;stroke-opacity:1" />
	<line
   class="st1"
   x1="62.400002"
   x2="62.400002"
   y1="88.400002"
   y2="159.7"
   id="line28"
   style="stroke:#06b6d4;stroke-opacity:1" />
	<line
   class="st1"
   x1="50.799999"
   x2="50.799999"
   y1="113.3"
   y2="159.7"
   id="line29"
   style="stroke:#06b6d4;stroke-opacity:1" />
	<line
   class="st1"
   x1="97.099998"
   x2="97.099998"
   y1="57.799999"
   y2="159.7"
   id="line30"
   style="stroke:#06b6d4;stroke-opacity:1" />
	<line
   class="st1"
   x1="85.5"
   x2="85.5"
   y1="65.699997"
   y2="159.7"
   id="line31"
   style="stroke:#06b6d4;stroke-opacity:1" />
	<line
   class="st1"
   x1="157.8"
   x2="208.10001"
   y1="264.60001"
   y2="264.60001"
   id="line32"
   style="stroke:#06b6d4;stroke-opacity:1" />
	<line
   class="st1"
   x1="157.8"
   x2="227.5"
   y1="253"
   y2="253"
   id="line33"
   style="stroke:#06b6d4;stroke-opacity:1" />
	<line
   class="st1"
   x1="157.89999"
   x2="241"
   y1="241.39999"
   y2="241.39999"
   id="line34"
   style="stroke:#06b6d4;stroke-opacity:1" />
	<line
   class="st1"
   x1="157.89999"
   x2="251.2"
   y1="229.8"
   y2="229.8"
   id="line35"
   style="stroke:#06b6d4;stroke-opacity:1" />
	<line
   class="st1"
   x1="76.599998"
   x2="259"
   y1="218.2"
   y2="218.2"
   id="line36"
   style="stroke:#06b6d4;stroke-opacity:1" />
	<line
   class="st1"
   x1="51"
   x2="265"
   y1="206.60001"
   y2="206.60001"
   id="line37"
   style="stroke:#06b6d4;stroke-opacity:1" />
	<line
   class="st1"
   x1="250.60001"
   x2="250.60001"
   y1="206.60001"
   y2="230.39999"
   id="line38"
   style="stroke:#06b6d4;stroke-opacity:1" />
	<line
   class="st1"
   x1="239"
   x2="239"
   y1="206.60001"
   y2="243.2"
   id="line39"
   style="stroke:#06b6d4;stroke-opacity:1" />
	<line
   class="st1"
   x1="227.5"
   x2="227.5"
   y1="206.60001"
   y2="253"
   id="line40"
   style="stroke:#06b6d4;stroke-opacity:1" />
	<line
   class="st1"
   x1="215.89999"
   x2="215.89999"
   y1="206.60001"
   y2="260.5"
   id="line41"
   style="stroke:#06b6d4;stroke-opacity:1" />
	<line
   class="st1"
   x1="204.3"
   x2="204.3"
   y1="206.60001"
   y2="266.20001"
   id="line42"
   style="stroke:#06b6d4;stroke-opacity:1" />
	<line
   class="st1"
   x1="192.7"
   x2="192.7"
   y1="206.60001"
   y2="270.5"
   id="line43"
   style="stroke:#06b6d4;stroke-opacity:1" />
	<line
   class="st1"
   x1="181.10001"
   x2="181.10001"
   y1="206.60001"
   y2="273.5"
   id="line44"
   style="stroke:#06b6d4;stroke-opacity:1" />
	<line
   class="st1"
   x1="169.5"
   x2="169.5"
   y1="206.60001"
   y2="275.10001"
   id="line45"
   style="stroke:#06b6d4;stroke-opacity:1" />
	<line
   class="st1"
   x1="50.799999"
   x2="74"
   y1="159.7"
   y2="159.7"
   id="line46"
   style="stroke:#06b6d4;stroke-opacity:1" />
</g>
<path
   class="st2"
   d="m 163.1,313.9 3.9,-15.4 c 3.1,-0.2 6.3,-0.5 9.3,-0.9 l 6.8,14.3 c 1.7,-0.3 3.3,-0.6 5,-0.9 1.7,-0.3 3.3,-0.7 5,-1 l 0.8,-15.8 c 3,-0.8 6,-1.8 9,-2.7 l 9.5,12.7 c 1.6,-0.6 3.1,-1.2 4.7,-1.9 1.6,-0.7 3.1,-1.3 4.7,-2 l -2.3,-15.7 c 2.8,-1.3 5.6,-2.9 8.3,-4.5 l 11.8,10.7 c 1.4,-0.9 2.8,-1.8 4.2,-2.7 1.4,-0.9 2.8,-1.9 4.1,-2.9 l -5.3,-15 c 2.5,-2 5,-3.9 7.2,-6 l 13.7,8.1 c 1.2,-1.1 2.4,-2.3 3.6,-3.5 1.2,-1.2 2.4,-2.4 3.5,-3.6 l -8.1,-13.7 c 2.1,-2.4 4,-4.8 6,-7.2 l 15,5.3 c 0.9,-1.3 2,-2.8 2.9,-4.1 0.9,-1.4 1.9,-2.8 2.7,-4.2 l -10.7,-11.8 c 1.6,-2.7 3.1,-5.5 4.5,-8.3 l 15.7,2.3 c 0.7,-1.6 1.3,-3.1 2,-4.7 0.7,-1.6 1.2,-3.1 1.9,-4.7 l -12.7,-9.5 c 1,-3 2,-6 2.7,-9 l 15.8,-0.8 c 0.4,-1.7 0.7,-3.3 1,-5 0.3,-1.7 0.6,-3.3 0.9,-5 L 295.9,178 c 0.4,-3.1 0.7,-6.2 0.9,-9.3 l 15.4,-3.9 c 0.1,-1.7 0.1,-3.3 0.1,-5.1 0,-1.7 0,-3.4 -0.1,-5.1 l -15.4,-3.9 c -0.2,-3.1 -0.5,-6.3 -0.9,-9.3 l 14.3,-6.8 c -0.3,-1.7 -0.6,-3.3 -0.9,-5 -0.3,-1.7 -0.7,-3.3 -1,-5 l -15.8,-0.8 c -0.8,-3 -1.8,-6 -2.7,-9 l 12.7,-9.5 c -0.6,-1.6 -1.2,-3.1 -1.9,-4.7 -0.6,-1.6 -1.3,-3.1 -2,-4.7 L 283,98 c -1.3,-2.8 -2.9,-5.6 -4.5,-8.3 l 10.7,-11.8 c -0.9,-1.4 -1.8,-2.8 -2.7,-4.2 -0.9,-1.4 -1.9,-2.8 -2.9,-4.1 l -15,5.3 c -2,-2.5 -3.9,-5 -6,-7.2 L 270.7,54 c -1.1,-1.2 -2.3,-2.4 -3.5,-3.6 -1.2,-1.2 -2.4,-2.4 -3.6,-3.5 L 249.9,55 c -2.4,-2.1 -4.8,-4 -7.2,-6 L 248,34 c -1.3,-0.9 -2.8,-2 -4.1,-2.9 -1.4,-0.9 -2.8,-1.9 -4.2,-2.7 l -11.8,10.7 c -2.7,-1.6 -5.5,-3.1 -8.3,-4.5 l 2.3,-15.7 c -1.6,-0.7 -3.1,-1.3 -4.7,-2 -1.6,-0.7 -3.1,-1.2 -4.7,-1.9 L 203,27.7 c -3,-1 -6,-2 -9,-2.7 L 193.2,9.2 c -1.7,-0.4 -3.3,-0.7 -5,-1 -1.7,-0.3 -3.3,-0.6 -5,-0.9 l -6.8,14.3 c -3.1,-0.4 -6.2,-0.7 -9.3,-0.9 L 163.2,5.3 C 161.4,5 159.8,5 158,5 c -1.7,0 -3.4,0 -5.1,0.1 L 149,20.4 c -3.1,0.2 -6.3,0.5 -9.3,0.9 L 132.8,7 c -1.7,0.3 -3.3,0.6 -5,0.9 -1.7,0.3 -3.3,0.7 -5,1 v 0 L 122,24.8 c -3,0.8 -6,1.8 -9,2.7 l -9.5,-12.7 c -1.6,0.6 -3.1,1.2 -4.7,1.9 -1.6,0.6 -3.1,1.3 -4.7,2 l 2.3,15.7 c -2.8,1.3 -5.6,2.9 -8.3,4.5 L 76.4,28.2 c -1.4,0.9 -2.8,1.8 -4.2,2.7 -1.4,0.9 -2.8,1.9 -4.1,2.9 l 5.3,14.9 c -2.5,2 -5,3.9 -7.2,6 L 52.5,46.6 c -1.2,1.1 -2.4,2.3 -3.6,3.5 -1.2,1.2 -2.4,2.4 -3.5,3.6 l 8.2,13.7 c -2.1,2.4 -4,4.8 -6,7.2 l -15,-5.3 c -0.9,1.3 -2,2.8 -2.9,4.1 -0.9,1.4 -1.9,2.8 -2.7,4.2 l 10.7,11.8 c -1.6,2.7 -3.1,5.5 -4.5,8.3 L 17.5,95.4 c -0.7,1.6 -1.3,3.1 -2,4.7 -0.6,1.6 -2,4.6 -2,4.6 l 12.7,9.5 c -1,3 -2,6 -2.7,9 L 7.7,124 c -0.4,1.7 -0.7,3.3 -1,5 -0.3,1.7 -1,5 -1,5 l 14.4,6.8 c -0.4,3.1 -0.7,6.2 -0.9,9.3 l -15.4,4.2 c -0.1,1.7 -0.1,3.3 -0.1,5.1 0,1.7 0,5.1 0,5.1 l 15.4,3.9 c 0.2,3.1 0.5,6.3 0.9,9.3 l -14.3,6.8 c 0.3,1.7 0.6,3.3 0.9,5 0.3,1.7 0.7,3.3 1,5 l 15.8,0.8 c 0.8,3 1.8,6 2.7,9 l -12.7,9.5 c 0.6,1.6 1.2,3.1 1.9,4.7 0.6,1.6 1.9,4.7 1.9,4.7 L 33,220.9 c 1.3,2.8 2.9,5.6 4.5,8.3 L 26.8,241 c 0.9,1.4 1.8,2.8 2.7,4.2 0.9,1.4 2.8,4.1 2.8,4.1 l 15,-5.3 c 2,2.5 3.9,5 6,7.2 l -8.1,13.7 c 1.1,1.2 2.3,2.4 3.5,3.6 1.2,1.2 2.4,2.4 3.6,3.5 L 66,263.8 c 2.4,2.1 4.8,4 7.2,6 l -5.3,15 c 1.3,0.9 2.8,2 4.1,2.9 1.4,0.9 2.8,1.9 4.2,2.7 L 88,280 c 2.7,1.6 5.5,3.1 8.3,4.5 l -2.1,15.7 c 1.6,0.7 3.1,1.3 4.7,2 1.6,0.6 3.1,1.2 4.7,1.9 l 9.4,-12.6 c 3,1 6,2 9,2.7 l 0.8,15.8 c 1.7,0.4 3.3,0.7 5,1 1.7,0.3 3.3,0.6 5,0.9 l 6.8,-14.3 c 3.1,0.4 6.2,0.7 9.3,0.9 l 3.9,15.4 M 74.1,160.8 V 77.2 c 21.3,-21.7 51,-35.3 83.9,-35.3 64.9,0 117.5,52.6 117.5,117.5 0,64.9 -52.6,117.5 -117.5,117.5 v 0.1 -69.1 l -0.1,0.1 h -34.8 v -0.1 23.1 0 H 111.5 V 207.8 H 88.3 v -0.1 23.2 0 H 76.7 v 0 -23.2 0 H 50.9 v -0.1 c -6.6,-14.7 -10.4,-31.2 -10.4,-48.3 0,-25.5 8.2,-49.2 21.9,-68.4 v 23.5 H 50.9 v 46.4"
   id="path46"
   style="fill:#06b6d4;fill-opacity:1;stroke:#06b6d4;stroke-opacity:1" />
<polygon
   class="st3"
   points="97.1,124.9 85.5,124.9 85.5,159.7 108.7,159.7 108.7,136.5 97.1,136.5 "
   id="polygon46"
   style="fill:#06b6d4;fill-opacity:1;stroke:#06b6d4;stroke-opacity:1" />
<polygon
   class="st3"
   points="143.5,78.7 155.1,78.7 155.1,159.7 120.3,159.7 120.3,67.1 131.9,67.1 131.9,101.7 143.5,101.7 "
   id="polygon47"
   style="fill:#06b6d4;fill-opacity:1;stroke:#06b6d4;stroke-opacity:1" />
<rect
   class="st1"
   height="31.9"
   width="212.8"
   x="51"
   y="168"
   id="rect47"
   style="stroke:#06b6d4;stroke-opacity:1" />
<g
   id="g48"
   style="stroke:#06b6d4;stroke-opacity:1">
	<rect
   class="st4"
   height="31.9"
   width="35.700001"
   x="180.2"
   y="168"
   id="rect48"
   style="stroke:#06b6d4;stroke-opacity:1" />
	<line
   class="st4"
   x1="198.10001"
   x2="198.10001"
   y1="168"
   y2="199.89999"
   id="line48"
   style="stroke:#06b6d4;stroke-opacity:1" />
</g>
<polyline
   class="st1"
   points="263.8,178.3 256,178.3 254.1,182 252.2,178.3 250.2,174.7 248.3,178.3 246.4,182 244.4,178.3   242.5,174.7 240.5,178.3 238.6,182 236.7,178.3 234.7,174.7 232.7,178.3 230.9,178.3 226.9,178.3 211.5,178.3 147.5,178.3   145.6,182 143.6,178.3 141.6,174.7 139.8,178.3 137.8,182 135.8,178.3 134,174.7 132,178.3 130.1,182 128.1,178.3 126.2,174.7   124.3,178.3 87.4,178.3 85.4,182 83.6,178.3 81.6,174.7 79.6,178.3 77.8,182 75.8,178.3 73.9,174.7 71.9,178.3 70,182 68.1,178.3   66.1,174.7 64.1,178.3 50.6,178.3 "
   id="polyline48"
   style="stroke:#06b6d4;stroke-opacity:1" />
<polyline
   class="st1"
   points="263.8,188.9 246.4,188.9 244.4,192.5 242.5,188.9 240.5,185.3 238.6,188.9 236.7,192.5 234.7,188.9   232.7,185.3 230.9,188.9 228.9,192.5 226.9,188.9 225.1,185.3 223.1,188.9 217.3,188.9 203.7,188.9 172.7,188.9 170.7,192.5   168.9,188.9 166.9,185.3 164.9,188.9 163,192.5 161.1,188.9 159.1,185.3 157.2,188.9 155.3,192.5 153.3,188.9 151.4,185.3   149.4,188.9 112.7,188.9 110.7,192.5 108.7,188.9 106.8,185.3 104.9,188.9 102.9,192.5 101,188.9 99.1,185.3 97.1,188.9 95.2,192.5   93.2,188.9 91.3,185.3 89.4,188.9 50.6,188.9 "
   id="polyline49"
   style="stroke:#06b6d4;stroke-opacity:1" />
<rect
   class="st5"
   height="2.7"
   width="35.700001"
   x="180"
   y="199.89999"
   id="rect49"
   style="stroke:#06b6d4;stroke-opacity:1" />
<rect
   class="st5"
   height="2.7"
   width="35.700001"
   x="180.2"
   y="165.3"
   id="rect50"
   style="stroke:#06b6d4;stroke-opacity:1" />
</svg>
